<?xml version="1.0" standalone="no"?>
<!DOCTYPE svg PUBLIC "-//W3C//DTD SVG 20010904//EN"
 "http://www.w3.org/TR/2001/REC-SVG-20010904/DTD/svg10.dtd">
<svg version="1.0" xmlns="http://www.w3.org/2000/svg"
 width="623.000000pt" height="620.000000pt" viewBox="0 0 623.000000 620.000000"
 preserveAspectRatio="xMidYMid meet">
<metadata>
Created by potrace 1.15, written by Peter Selinger 2001-2017
</metadata>
<g transform="translate(0.000000,620.000000) scale(0.100000,-0.100000)"
fill="#3e4360" stroke="none">
<path d="M2666 6164 c-20 -20 -21 -68 -1 -88 13 -13 11 -15 -15 -21 -16 -4
-32 -11 -36 -16 -11 -19 -44 -171 -38 -180 8 -13 51 -11 58 4 3 6 4 -34 2 -90
-4 -109 4 -138 40 -131 17 3 20 15 24 108 l6 105 4 -99 c5 -103 16 -127 54
-113 13 5 16 24 16 117 0 101 1 110 16 96 19 -19 19 -19 37 -1 13 13 12 25 -7
101 -20 81 -24 88 -53 98 -29 10 -30 13 -17 30 8 11 14 30 14 41 0 47 -70 73
-104 39z"/>
<path d="M2014 6016 c-61 -27 -81 -93 -49 -156 20 -38 43 -50 99 -50 63 0 96
30 103 93 7 57 -13 92 -62 113 -42 17 -51 17 -91 0z"/>
<path d="M4237 5962 c-23 -25 -21 -58 3 -82 l20 -20 -29 0 c-38 0 -45 -11 -66
-101 -21 -89 -16 -113 20 -107 l25 5 0 -97 c0 -108 10 -131 49 -111 18 10 21
23 24 109 l3 97 2 -101 c2 -105 9 -122 47 -108 18 7 17 2 16 139 -1 78 2 104
9 88 10 -24 44 -31 55 -12 9 13 -23 147 -41 177 -10 15 -24 22 -46 22 -32 0
-32 0 -10 16 25 17 31 71 10 92 -18 18 -73 14 -91 -6z"/>
<path d="M1526 5774 c-18 -18 -20 -32 -7 -53 7 -11 4 -18 -12 -26 -16 -8 -25
-27 -36 -74 -14 -67 -6 -96 21 -73 10 8 13 -5 13 -66 l0 -77 53 -2 52 -3 0 75
c0 72 1 75 23 72 19 -2 22 2 20 33 -3 63 -26 114 -53 121 -14 4 -19 7 -12 8
15 1 16 53 0 69 -17 17 -44 15 -62 -4z"/>
<path d="M1922 5783 c-35 -7 -48 -36 -86 -196 -41 -168 -39 -187 19 -187 40 0
46 7 61 80 11 51 12 42 13 -117 l1 -171 -30 -10 c-37 -13 -32 -47 6 -39 21 4
23 1 21 -48 -2 -62 13 -85 58 -85 48 0 65 25 65 98 0 35 4 62 10 62 6 0 10
-28 10 -63 0 -73 17 -97 67 -97 42 0 58 24 56 79 -2 25 3 57 10 70 9 19 9 25
0 28 -10 4 -13 44 -12 161 1 95 4 142 8 120 10 -51 28 -70 64 -66 52 5 54 22
17 188 -19 84 -41 162 -51 174 -16 19 -27 21 -151 23 -73 0 -143 -1 -156 -4z"/>
<path d="M4854 5577 c-44 -40 -55 -96 -29 -151 21 -44 59 -66 115 -66 55 0 94
22 114 64 22 47 20 87 -7 127 -28 42 -60 59 -115 59 -34 0 -49 -6 -78 -33z"/>
<path d="M4806 5331 c-33 -5 -55 -15 -67 -29 -10 -13 -36 -100 -60 -198 -48
-201 -46 -224 15 -224 43 0 63 19 72 68 19 107 22 102 23 -33 0 -77 -2 -177
-5 -221 -6 -68 -9 -81 -23 -77 -9 2 -25 -3 -36 -11 -16 -12 -17 -17 -8 -27 10
-10 18 -10 38 -1 l25 12 0 -61 c0 -50 4 -64 25 -84 29 -30 64 -32 96 -6 21 17
24 30 27 100 2 45 8 81 12 81 4 0 10 -36 12 -81 3 -70 6 -83 27 -100 32 -26
67 -24 96 6 21 20 25 34 25 86 0 54 2 60 18 54 30 -12 46 -11 50 6 3 16 -43
43 -57 34 -15 -8 -21 66 -20 235 1 120 4 152 9 117 12 -70 33 -97 75 -97 63 0
65 23 20 226 -21 97 -46 185 -55 196 -10 13 -35 24 -66 29 -58 9 -199 9 -268
0z"/>
<path d="M5477 5083 c-12 -11 -8 -61 5 -69 9 -6 5 -10 -12 -14 -27 -6 -45 -46
-52 -111 -2 -29 0 -34 19 -37 20 -3 22 -10 25 -75 l3 -72 47 -2 c44 -2 48 0
54 23 4 14 4 54 1 87 -2 34 -3 56 0 50 3 -7 13 -13 24 -13 24 0 25 27 4 98
-14 45 -19 52 -41 52 -23 0 -24 1 -10 16 19 18 21 45 4 62 -13 13 -60 16 -71
5z"/>
<path d="M523 4915 c-3 -9 -3 -29 1 -45 4 -22 2 -30 -9 -30 -19 0 -25 -12 -39
-74 -14 -61 -11 -76 15 -76 17 0 19 -8 19 -70 0 -75 14 -96 45 -70 11 9 15 10
15 1 0 -7 10 -11 23 -9 20 3 22 9 25 76 3 64 5 72 22 72 24 0 25 23 7 95 -10
38 -18 51 -34 53 -19 3 -20 6 -10 32 8 22 8 32 -2 44 -17 21 -70 21 -78 1z"/>
<path d="M3170 4821 c-17 -32 -12 -69 12 -85 22 -16 22 -16 -9 -16 -40 0 -49
-13 -68 -91 -22 -95 -20 -119 9 -119 13 0 27 6 29 13 3 6 6 -39 6 -100 1 -62
3 -113 5 -113 2 0 11 -3 19 -6 8 -3 22 2 31 11 15 15 17 15 32 0 9 -9 23 -14
31 -11 8 3 17 6 19 6 2 0 4 53 4 118 1 84 3 112 11 100 11 -19 44 -24 53 -9 8
12 -30 169 -45 187 -6 8 -25 14 -42 14 -31 0 -31 0 -9 16 24 16 29 53 12 85
-8 14 -21 19 -50 19 -29 0 -42 -5 -50 -19z"/>
<path d="M274 4391 c-67 -41 -72 -142 -10 -198 31 -28 43 -33 87 -33 44 0 55
4 84 33 59 59 56 139 -7 192 -37 31 -108 34 -154 6z"/>
<path d="M209 4133 c-58 -6 -72 -32 -118 -215 -22 -92 -41 -176 -41 -187 0
-51 77 -70 105 -27 9 13 22 55 29 92 l14 69 1 -76 c2 -124 -12 -381 -19 -369
-10 17 -62 -10 -58 -29 4 -17 20 -18 51 -6 15 6 17 0 17 -53 0 -86 32 -117
102 -99 33 9 48 49 48 128 0 33 4 59 10 59 6 0 10 -31 10 -74 0 -79 15 -112
55 -117 36 -5 76 11 84 33 4 12 7 144 5 292 -2 177 0 254 6 223 12 -66 34 -97
69 -97 32 0 61 27 61 56 0 43 -79 357 -92 371 -9 8 -33 19 -54 23 -38 9 -211
11 -285 3z"/>
<path d="M1107 3942 c-21 -23 -22 -66 -1 -86 17 -17 12 -21 -31 -28 -15 -2
-24 -18 -37 -68 -22 -86 -23 -129 -2 -137 11 -4 22 1 30 12 12 16 14 3 14 -93
0 -95 3 -114 16 -119 9 -3 26 -1 37 6 15 10 21 10 27 1 4 -6 18 -10 31 -8 23
3 24 6 29 118 3 63 8 107 12 98 9 -21 31 -23 46 -5 7 8 5 34 -8 87 -25 106
-28 110 -61 110 -32 0 -37 11 -14 30 23 19 19 66 -7 84 -30 21 -61 20 -81 -2z"/>
<path d="M3030 3769 c-94 -38 -127 -164 -63 -240 66 -78 172 -80 243 -5 36 40
41 137 8 186 -40 60 -121 85 -188 59z"/>
<path d="M2640 3583 c-35 -14 -50 -37 -50 -78 0 -54 12 -64 181 -159 l135 -76
-4 -445 -3 -445 25 -25 c34 -34 88 -34 123 1 24 24 25 29 23 137 -2 62 -2 176
-1 255 1 135 2 142 21 142 19 0 20 -7 21 -142 1 -79 1 -193 -1 -255 -2 -108
-1 -113 23 -137 32 -32 84 -35 118 -7 l24 19 0 452 0 452 143 82 c145 82 171
106 171 156 0 40 -42 80 -85 80 -10 0 -84 -36 -166 -81 -129 -70 -151 -79
-182 -74 -56 11 -61 -11 -46 -183 12 -130 11 -145 -4 -160 -15 -15 -17 -15
-35 3 -18 19 -19 26 -6 159 16 170 11 191 -47 182 -34 -6 -52 2 -172 69 -131
73 -176 90 -206 78z"/>
<path d="M6052 3398 c-21 -21 -15 -75 10 -92 22 -16 22 -16 -9 -16 -17 0 -36
-7 -43 -15 -16 -19 -50 -163 -43 -182 6 -16 35 -17 52 0 11 10 12 -5 7 -90 -5
-86 -4 -104 10 -118 9 -9 23 -14 31 -11 8 3 17 6 19 6 2 0 5 46 6 103 l2 102
5 -99 c5 -77 10 -101 23 -109 12 -8 21 -7 32 2 13 11 16 36 17 120 0 58 3 100
6 94 2 -7 16 -13 29 -13 29 0 31 24 9 119 -19 77 -28 91 -66 91 l-29 0 20 20
c41 41 13 100 -46 100 -17 0 -35 -5 -42 -12z"/>
<path d="M5719 3041 c-57 -58 -31 -168 45 -187 42 -10 93 4 116 33 41 53 38
106 -10 154 -23 24 -37 29 -75 29 -38 0 -52 -5 -76 -29z"/>
<path d="M87 2922 c-21 -23 -22 -66 -1 -86 17 -17 12 -21 -31 -28 -15 -2 -24
-18 -37 -68 -22 -86 -23 -129 -2 -137 10 -4 22 1 30 12 11 15 14 1 16 -96 3
-103 5 -114 22 -117 11 -3 25 3 32 13 11 15 13 15 22 0 5 -10 18 -15 33 -13
23 3 24 6 29 118 3 63 8 107 12 98 9 -21 31 -23 46 -5 8 9 5 35 -9 92 -24 91
-32 105 -65 105 -27 0 -31 12 -9 30 23 19 19 66 -7 84 -30 21 -61 20 -81 -2z"/>
<path d="M1167 2852 c-21 -24 -22 -66 -1 -83 14 -12 12 -14 -17 -24 -31 -10
-36 -17 -51 -76 -9 -35 -17 -79 -17 -96 -1 -28 2 -33 23 -33 13 0 27 6 29 13
3 6 6 -39 6 -101 1 -94 4 -114 17 -119 9 -3 25 -1 35 6 15 8 23 8 38 0 10 -7
26 -9 35 -6 13 5 16 25 17 124 1 65 3 110 6 101 5 -21 51 -25 58 -5 3 6 -5 50
-18 96 -21 79 -24 85 -56 96 -29 10 -31 12 -17 24 22 18 20 64 -2 84 -24 22
-65 21 -85 -1z"/>
<path d="M5700 2834 c-85 -16 -81 -10 -126 -197 -39 -160 -39 -160 -18 -181
40 -40 79 -10 99 74 l15 65 -5 -94 c-3 -52 -5 -133 -5 -181 0 -86 -1 -88 -26
-94 -32 -8 -29 -42 4 -39 20 3 22 -2 22 -47 0 -83 54 -116 105 -65 21 20 25
34 25 85 0 85 19 75 22 -12 3 -67 5 -73 31 -88 24 -13 30 -13 55 0 24 14 28
23 32 80 3 36 8 70 13 77 4 6 3 14 -3 18 -6 4 -10 62 -9 148 0 94 4 132 9 114
5 -16 14 -35 21 -43 18 -22 57 -17 74 9 14 22 12 36 -19 177 -23 102 -41 159
-54 172 -16 16 -37 20 -128 23 -60 2 -120 2 -134 -1z"/>
<path d="M4596 2487 c-14 -10 -17 -22 -14 -47 4 -26 1 -34 -14 -38 -10 -2 -21
-16 -24 -31 -3 -14 -10 -43 -15 -64 -11 -43 -4 -61 22 -54 16 4 18 -3 21 -72
l3 -76 40 0 c62 -1 67 7 61 94 -3 42 -3 70 0 64 3 -7 14 -13 25 -13 23 0 24
17 7 90 -9 39 -18 54 -35 61 -21 8 -22 11 -11 35 11 23 10 28 -11 45 -28 23
-32 23 -55 6z"/>
<path d="M1890 2330 c-24 -24 -25 -48 -4 -78 14 -20 14 -23 -3 -28 -42 -13
-49 -24 -67 -108 -16 -68 -17 -89 -8 -98 10 -10 17 -10 32 0 19 11 19 8 22
-96 l3 -107 30 0 30 0 6 105 5 105 2 -103 c2 -85 5 -104 18 -109 9 -3 24 -2
33 4 13 9 16 30 15 129 -1 66 1 109 3 97 5 -25 40 -40 56 -24 8 8 6 33 -7 88
-23 98 -31 113 -61 113 -28 0 -41 15 -20 24 9 3 15 18 15 39 0 60 -59 88 -100
47z"/>
<path d="M1298 1894 c-78 -42 -76 -178 2 -219 16 -8 50 -15 76 -15 39 0 51 5
80 34 30 30 34 40 34 88 0 32 -6 62 -16 76 -34 49 -120 67 -176 36z"/>
<path d="M5480 1711 c-17 -32 -12 -69 12 -85 22 -16 22 -16 -9 -16 -17 0 -36
-7 -43 -14 -14 -18 -39 -119 -40 -163 0 -28 3 -33 24 -33 13 0 27 6 29 13 3 6
6 -38 6 -99 1 -90 4 -113 16 -118 18 -7 45 2 45 15 0 5 11 3 24 -6 13 -8 31
-13 40 -9 13 5 16 24 16 123 1 84 3 111 11 99 11 -19 44 -24 54 -8 7 11 -33
170 -47 188 -6 6 -23 12 -39 12 l-29 0 20 20 c24 24 26 63 4 84 -22 23 -81 21
-94 -3z"/>
<path d="M1234 1633 c-65 -7 -78 -28 -123 -210 -55 -218 -54 -243 15 -243 40
0 55 18 70 88 11 51 12 35 12 -158 0 -118 -2 -207 -5 -197 -5 21 -7 21 -43 2
-19 -10 -27 -20 -24 -30 7 -18 14 -18 48 -5 l26 10 0 -65 c0 -57 3 -66 26 -84
34 -27 57 -26 89 2 l27 22 -1 208 c0 174 2 207 14 207 12 0 14 -33 14 -207
l-1 -208 27 -22 c14 -13 33 -23 41 -23 19 0 57 19 66 34 4 6 8 133 9 281 1
149 3 259 6 245 12 -78 28 -100 73 -100 20 0 35 8 46 25 15 23 13 35 -25 201
-53 233 -45 225 -217 229 -71 2 -148 1 -170 -2z"/>
<path d="M3253 1435 c-3 -9 -3 -29 1 -45 4 -22 2 -30 -9 -30 -21 0 -34 -30
-41 -94 -6 -53 -5 -56 15 -56 19 0 21 -5 21 -70 0 -75 14 -96 45 -70 11 9 15
10 15 1 0 -7 10 -11 23 -9 20 3 22 9 25 76 3 64 5 72 22 72 24 0 25 23 7 95
-10 38 -18 51 -34 53 -19 3 -20 6 -10 32 8 22 8 32 -2 44 -17 21 -70 21 -78 1z"/>
<path d="M3714 1146 c-28 -28 -34 -42 -34 -76 0 -57 50 -110 104 -110 74 0
116 43 116 116 0 54 -53 104 -110 104 -34 0 -48 -6 -76 -34z"/>
<path d="M1987 1113 c-11 -11 -8 -58 5 -71 9 -9 7 -12 -10 -12 -26 0 -41 -30
-49 -102 -5 -44 -4 -48 16 -48 19 0 21 -5 21 -70 0 -75 14 -96 45 -70 11 9 15
10 15 1 0 -7 10 -11 23 -9 20 3 22 9 25 76 3 64 5 72 22 72 24 0 25 23 7 95
-11 43 -17 51 -43 56 -16 4 -23 7 -17 8 18 2 27 49 13 66 -13 15 -61 21 -73 8z"/>
<path d="M3693 941 c-33 -4 -60 -14 -72 -26 -15 -16 -91 -286 -91 -324 0 -18
31 -41 55 -41 30 0 53 32 64 91 7 32 9 -1 10 -126 l1 -171 -30 -11 c-22 -8
-28 -16 -24 -28 5 -12 14 -15 32 -10 24 6 24 5 18 -38 -5 -35 -3 -48 14 -70
26 -32 62 -35 90 -7 16 16 20 33 20 85 0 37 4 65 10 65 6 0 10 -28 10 -65 0
-52 4 -69 20 -85 53 -53 119 -1 105 82 -5 29 -3 43 6 49 11 7 12 12 2 29 -9
14 -13 66 -12 172 1 93 4 137 8 111 9 -53 26 -73 62 -73 53 0 56 28 19 197
-41 190 -42 191 -170 197 -52 2 -119 1 -147 -3z"/>
<path d="M4461 751 c-15 -27 -14 -37 5 -55 14 -15 14 -16 -4 -16 -26 0 -36
-16 -50 -78 -16 -72 -16 -75 13 -70 25 5 25 5 25 -72 l0 -78 50 0 50 0 0 78
c0 77 0 77 25 72 29 -5 31 5 14 76 -14 57 -25 72 -53 72 -15 0 -17 3 -8 9 8 5
12 22 10 42 -3 30 -7 34 -35 37 -23 2 -34 -2 -42 -17z"/>
</g>
</svg>
