<?xml version="1.0" standalone="no"?>
<!DOCTYPE svg PUBLIC "-//W3C//DTD SVG 20010904//EN"
 "http://www.w3.org/TR/2001/REC-SVG-20010904/DTD/svg10.dtd">
<svg version="1.0" xmlns="http://www.w3.org/2000/svg"
 width="225.000000pt" height="225.000000pt" viewBox="0 0 225.000000 225.000000"
 preserveAspectRatio="xMidYMid meet">
<metadata>
Created by potrace 1.15, written by Peter Selinger 2001-2017
</metadata>
<g transform="translate(0.000000,225.000000) scale(0.100000,-0.100000)"
fill="#3e4360" stroke="none">
<path d="M985 2240 c-245 -32 -454 -133 -637 -308 -253 -243 -374 -566 -340
-911 28 -287 143 -517 358 -721 145 -136 315 -226 518 -272 117 -27 354 -29
463 -5 323 73 580 257 746 534 214 356 202 826 -29 1182 -164 251 -418 423
-717 487 -88 18 -272 25 -362 14z m363 -46 c238 -49 471 -192 627 -387 79 -98
164 -265 200 -390 132 -467 -68 -971 -486 -1225 -427 -260 -984 -192 -1334
162 -414 418 -430 1062 -38 1505 167 190 440 326 708 355 68 7 242 -4 323 -20z"/>
<path d="M962 1433 c-153 -160 -160 -169 -144 -187 16 -18 22 -13 147 118 72
75 132 136 135 136 3 0 4 -142 2 -315 l-3 -315 26 0 25 0 0 317 0 318 133
-133 c124 -124 134 -131 149 -115 16 16 8 26 -140 177 -86 89 -159 162 -163
164 -3 1 -79 -73 -167 -165z"/>
<path d="M775 750 l0 -100 350 0 350 0 0 100 0 100 -32 0 -33 0 0 -70 0 -70
-285 0 -285 0 0 70 0 70 -32 0 -33 0 0 -100z"/>
</g>
</svg>
