<?xml version="1.0"?>
<svg xmlns="http://www.w3.org/2000/svg" xmlns:xlink="http://www.w3.org/1999/xlink" version="1.1" id="Layer_1" x="0px" y="0px" viewBox="0 0 505 505" style="enable-background:new 0 0 505 505;" xml:space="preserve" width="512px" height="512px" class=""><g><circle style="fill:#3e4360" cx="252.5" cy="252.5" r="252.5" data-original="#FFD05B" class="" data-old_color="#FFD05B"/><path style="fill:#000000" d="M339.3,402.9H165.7L78.8,252.5l86.8-150.4h173.7l86.9,150.4L339.3,402.9z M172.5,391.1h160l80-138.6  l-80-138.6h-160l-80,138.6L172.5,391.1z" data-original="#FFFFFF" class="active-path" data-old_color="#FFFFFF"/><rect id="SVGCleanerId_0" x="85.7" y="246.6" style="fill:#000000" width="333.6" height="11.8" data-original="#FFFFFF" class="active-path" data-old_color="#FFFFFF"/><g transform="matrix(0.4832 0.8755 -0.8755 0.4832 356.44 -91.83)">
	
		<rect id="SVGCleanerId_0_1_" x="85.713" y="246.597" transform="matrix(-0.4832 -0.8755 0.8755 -0.4832 153.4624 595.5804)" style="fill:#000000" width="333.597" height="11.8" data-original="#FFFFFF" class="active-path" data-old_color="#FFFFFF"/>
</g><rect x="246.616" y="85.695" transform="matrix(-0.8756 -0.483 0.483 -0.8756 351.6666 595.5444)" style="fill:#000000" width="11.8" height="333.594" data-original="#FFFFFF" class="active-path" data-old_color="#FFFFFF"/><circle style="fill:#80917F" cx="334.7" cy="109.5" r="33.9" data-original="#80917F" class=""/><g>
	<circle style="fill:#96B1BB" cx="170.5" cy="109.5" r="33.9" data-original="#54C0EB" class="" data-old_color="#54C0EB"/>
	<circle style="fill:#96B1BB" cx="334.7" cy="393.7" r="33.9" data-original="#54C0EB" class="" data-old_color="#54C0EB"/>
</g><circle style="fill:#80917F" cx="170.5" cy="393.7" r="33.9" data-original="#80917F" class=""/><circle style="fill:#ACAF8B" cx="419.3" cy="252.5" r="33.9" data-original="#FF7058" class="" data-old_color="#FF7058"/><circle style="fill:#80917F" cx="252.5" cy="252.5" r="33.9" data-original="#ACB3BA" class="" data-old_color="#ACB3BA"/><circle style="fill:#ACAF8B" cx="85.7" cy="252.5" r="33.9" data-original="#FF7058" class="" data-old_color="#FF7058"/><script xmlns="" style="fill:null"/></g> </svg>
