<svg height="480pt" viewBox="0 0 480 480.2959" width="480pt" xmlns="http://www.w3.org/2000/svg"><path d="m472.160156 336.296875c0 75.109375-60.890625 136-136 136-75.113281 0-136-60.890625-136-136 0-75.113281 60.886719-136 136-136 75.109375 0 136 60.886719 136 136zm0 0" fill="#60a2d7"/><path d="m280.160156 336.296875c0 75.109375-60.890625 136-136 136-75.113281 0-136-60.890625-136-136 0-75.113281 60.886719-136 136-136 75.109375 0 136 60.886719 136 136zm0 0" fill="#f7cc38"/><path d="m280.160156 336.296875c0-53.195313-17.910156-96.320313-40-96.320313-22.09375 0-40 43.125-40 96.320313s17.90625 96.320313 40 96.320313c22.089844 0 40-43.125 40-96.320313zm0 0" fill="#8cb28c"/><path d="m376.160156 144.296875c0 75.109375-60.890625 136-136 136-75.113281 0-136-60.890625-136-136 0-75.113281 60.886719-136 136-136 75.109375 0 136 60.886719 136 136zm0 0" fill="#ee638c"/><path d="m376.160156 144.296875c0 75.109375-60.890625 136-136 136-75.113281 0-136-60.890625-136-136 0-75.113281 60.886719-136 136-136 75.109375 0 136 60.886719 136 136zm0 0" fill="#ee638c"/><path d="m213.589844 277.664062c60.964844 12.183594 122.410156-18.609374 149.136718-74.734374-60.960937-12.1875-122.40625 18.605468-149.136718 74.734374zm0 0" fill="#b495bc"/><path d="m117.589844 202.929688c26.730468 56.125 88.175781 86.917968 149.136718 74.734374-26.726562-56.128906-88.171874-86.921874-149.136718-74.734374zm0 0" fill="#ef7559"/><path d="m235.085938 245.542969c-.3125.34375-.628907.679687-.933594 1.023437-1.9375 2.203125-3.804688 4.460938-5.601563 6.777344l-.449219.609375c-5.585937 7.335937-10.410156 15.222656-14.398437 23.535156l-.070313.136719 1.238282.222656c3.359375.628906 6.761718 1.140625 10.199218 1.527344.90625.097656 1.800782.21875 2.714844.296875 4.085938.375 8.207032.625 12.390625.625 4.183594 0 8.304688-.25 12.390625-.625.914063-.078125 1.808594-.199219 2.710938-.296875 3.441406-.394531 6.84375-.902344 10.203125-1.527344l1.238281-.222656-.070312-.136719c-3.988282-8.3125-8.816407-16.199219-14.402344-23.535156l-.445313-.609375c-1.792969-2.320312-3.660156-4.578125-5.601562-6.777344-.304688-.34375-.625-.679687-.9375-1.023437-1.636719-1.828125-3.328125-3.617188-5.070313-5.367188-1.753906 1.742188-3.457031 3.535157-5.105468 5.367188zm0 0" fill="#4a4a4a"/><path d="m144.160156 480.296875c35.472656-.015625 69.679688-13.191406 96-36.976563 44.25 39.773438 108.421875 48.195313 161.441406 21.191407 53.019532-27.003907 83.941407-83.859375 77.792969-143.039063-6.148437-59.183594-48.09375-108.46875-105.53125-124 24.039063-60.109375 5.011719-128.871094-46.511719-168.074218-51.519531-39.199219-122.867187-39.199219-174.386718 0-51.519532 39.203124-70.550782 107.964843-46.507813 168.074218-69.664062 18.855469-114.582031 86.394532-105.046875 157.929688s70.582032 124.941406 142.75 124.894531zm64-144c-.019531-17.128906 3.417969-34.082031 10.109375-49.847656 14.488281 2.460937 29.289063 2.460937 43.777344 0 19.171875 45.21875 10.65625 97.433593-21.886719 134.222656-20.609375-23.273437-31.992187-53.285156-32-84.375zm46.175782-64.800781c-9.417969 1.109375-18.933594 1.109375-28.351563 0 4.097656-6.957032 8.84375-13.511719 14.175781-19.578125 5.328125 6.066406 10.074219 12.621093 14.175782 19.578125zm-2.878907-30.871094c26.925781-24.179688 62.925781-35.660156 98.878907-31.527344-17.4375 29.550782-45.984376 50.882813-79.265626 59.238282-5.421874-9.988282-12.007812-19.300782-19.613281-27.742188zm-42.210937 27.773438c-33.289063-8.367188-61.839844-29.726563-79.261719-59.300782 35.941406-4.148437 71.941406 7.304688 98.878906 31.460938-7.613281 8.464844-14.195312 17.800781-19.617187 27.808594zm254.914062 67.898437c.085938 50.363281-29.421875 96.082031-75.351562 116.75-45.933594 20.667969-99.71875 12.425781-137.351563-21.046875 36.480469-40.527344 46.722657-98.28125 26.398438-148.878906 38.191406-10.417969 70.4375-36.046875 89.207031-70.898438 56.972656 14.222656 96.984375 65.351563 97.097656 124.074219zm-224-320c42.914063 0 82.972656 21.507813 106.683594 57.277344 23.707031 35.769531 27.917969 81.042969 11.203125 120.570312-42.601563-6.976562-86.050781 5.972657-117.886719 35.128907-31.835937-29.15625-75.285156-42.105469-117.890625-35.128907-16.710937-39.527343-12.503906-84.800781 11.207031-120.570312 23.710938-35.769531 63.769532-57.277344 106.683594-57.277344zm-126.914062 195.925781c18.773437 34.851563 51.019531 60.480469 89.210937 70.898438-20.328125 50.597656-10.085937 108.351562 26.398438 148.878906-39.738281 35.234375-97.121094 42.238281-144.164063 17.589844-47.046875-24.644532-73.957031-75.804688-67.613281-128.535156 6.34375-52.730469 44.621094-96.046876 96.167969-108.832032zm0 0"/></svg>