<?xml version="1.0" standalone="no"?>
<!DOCTYPE svg PUBLIC "-//W3C//DTD SVG 20010904//EN"
 "http://www.w3.org/TR/2001/REC-SVG-20010904/DTD/svg10.dtd">
<svg version="1.0" xmlns="http://www.w3.org/2000/svg"
 width="1300.000000pt" height="1300.000000pt" viewBox="0 0 1300.000000 1300.000000"
 preserveAspectRatio="xMidYMid meet">
<metadata>
Created by potrace 1.15, written by Peter Selinger 2001-2017
</metadata>
<g transform="translate(0.000000,1300.000000) scale(0.100000,-0.100000)"
fill="#3e4360" stroke="none">
<path d="M8296 10729 c-100 -14 -239 -63 -330 -117 -99 -58 -229 -184 -290
-279 -95 -147 -136 -294 -136 -481 0 -212 57 -374 188 -540 19 -23 32 -48 29
-55 -5 -11 -96 -127 -534 -679 l-163 -206 -83 35 c-202 85 -392 119 -627 110
-237 -9 -402 -51 -615 -158 -312 -155 -575 -438 -706 -759 -23 -57 -29 -65
-50 -62 -36 5 -896 151 -954 163 l-51 9 -22 73 c-54 174 -195 318 -370 379
-57 19 -86 23 -192 22 -143 -1 -209 -19 -312 -88 -383 -254 -342 -822 74
-1016 220 -103 471 -58 659 117 l46 43 224 -39 c192 -34 561 -97 777 -133 l62
-10 0 -73 c0 -102 16 -211 50 -340 90 -343 313 -650 618 -853 68 -45 128 -80
133 -77 5 4 9 2 9 -3 0 -14 150 -76 253 -106 147 -43 260 -58 422 -59 215 -1
416 40 598 122 l65 29 138 -261 c76 -144 154 -292 173 -328 l35 -66 -63 -69
c-199 -217 -301 -478 -301 -770 0 -288 110 -563 309 -768 446 -461 1158 -464
1611 -7 104 105 169 206 244 381 50 117 82 319 72 458 -20 281 -121 512 -311
711 -63 66 -202 181 -219 181 -4 0 -24 11 -44 25 -52 36 -222 100 -317 121
-148 31 -359 24 -535 -20 -24 -6 -32 7 -207 338 -101 190 -183 350 -183 356 0
6 30 45 66 86 173 199 296 462 339 724 20 124 20 370 0 486 -48 277 -162 516
-352 739 -74 87 -74 73 10 177 23 29 155 195 291 368 377 477 356 451 374 446
119 -35 318 -32 455 8 148 44 255 105 366 210 253 242 338 609 216 943 -79
218 -274 418 -496 506 -136 54 -303 76 -443 56z m267 -295 c158 -38 311 -161
380 -304 54 -111 70 -187 65 -300 -12 -228 -132 -407 -343 -512 -81 -40 -142
-53 -255 -53 -132 0 -217 25 -321 93 -172 112 -269 293 -269 502 0 157 52 287
161 404 156 166 358 225 582 170z m-1943 -2418 c317 -75 558 -269 695 -557 74
-159 90 -235 89 -434 -1 -155 -3 -178 -28 -260 -74 -245 -239 -468 -432 -580
-35 -21 -62 -40 -60 -44 3 -4 -3 -7 -12 -8 -9 0 -48 -14 -87 -30 -135 -58
-194 -68 -380 -68 -144 0 -182 4 -252 22 -309 85 -565 312 -682 606 -100 252
-91 561 25 800 l18 37 -30 33 -29 32 31 -28 31 -28 48 73 c155 235 391 389
672 443 95 18 289 14 383 -9z m-3162 -331 c36 -30 47 -66 32 -110 -22 -66
-103 -86 -158 -40 -35 30 -45 69 -27 111 27 66 100 84 153 39z m4847 -2856
c227 -46 421 -234 480 -464 20 -78 20 -233 0 -310 -71 -273 -304 -465 -584
-482 -375 -23 -692 296 -668 671 15 234 144 429 357 536 123 62 267 79 415 49z"/>
<path d="M8305 10296 c-175 -43 -307 -189 -337 -372 -32 -189 71 -383 249
-471 66 -32 86 -37 165 -41 111 -6 195 15 276 68 191 123 260 372 160 576 -92
190 -309 291 -513 240z m181 -285 c103 -47 131 -173 58 -261 -36 -42 -74 -60
-130 -60 -119 0 -202 115 -160 224 38 100 136 141 232 97z"/>
<path d="M6265 7506 c-184 -58 -322 -219 -345 -402 -38 -296 189 -554 487
-554 l56 0 -19 23 -19 22 22 -19 c58 -49 253 46 341 167 53 73 60 86 31 62
-21 -17 -21 -16 3 10 59 66 82 208 54 330 -40 169 -173 312 -335 359 -66 19
-219 20 -276 2z"/>
</g>
</svg>
